<?xml version="1.0" standalone="no"?>
<!DOCTYPE svg PUBLIC "-//W3C//DTD SVG 20010904//EN"
 "http://www.w3.org/TR/2001/REC-SVG-20010904/DTD/svg10.dtd">
<svg version="1.0" xmlns="http://www.w3.org/2000/svg"
 width="1024.000000pt" height="1024.000000pt" viewBox="0 0 1024.000000 1024.000000"
 preserveAspectRatio="xMidYMid meet">

<g transform="translate(0.000000,1024.000000) scale(0.100000,-0.100000)"
fill="#000000" stroke="none">
<path d="M4373 7511 c-146 -40 -281 -109 -425 -219 -65 -49 -207 -191 -266
-267 -138 -178 -232 -442 -232 -654 1 -316 195 -536 434 -492 196 36 327 182
391 437 39 154 32 164 -29 43 -91 -180 -171 -281 -248 -314 -132 -54 -197 41
-199 289 -1 184 34 349 111 528 70 162 118 236 225 343 123 123 201 168 304
173 60 3 71 0 121 -30 93 -57 124 -123 123 -273 0 -89 -25 -244 -64 -400 -67
-262 -306 -891 -419 -1101 -49 -89 -54 -95 -78 -89 -15 3 -72 10 -127 15 -479
46 -991 -80 -1376 -339 -330 -222 -565 -531 -682 -896 -55 -174 -62 -227 -61
-460 0 -194 2 -217 26 -305 88 -321 260 -543 523 -673 170 -85 324 -117 554
-117 344 0 668 88 1081 295 227 113 555 317 795 494 50 37 124 91 165 121 102
74 517 391 615 471 44 35 161 123 260 195 475 343 992 625 1435 781 163 58
239 73 365 73 168 0 268 -31 358 -110 157 -139 163 -392 15 -623 -58 -89 -189
-213 -286 -271 -91 -54 -242 -110 -342 -125 -268 -43 -653 31 -1197 230 -74
27 -142 49 -150 49 -8 0 -54 -30 -101 -67 l-85 -67 39 -17 c82 -35 524 -189
639 -223 533 -158 904 -153 1242 17 231 117 437 348 509 572 31 96 43 277 25
367 -34 163 -163 329 -311 400 -112 54 -178 69 -332 75 -242 10 -426 -24 -813
-149 -606 -196 -1030 -406 -1687 -835 -818 -533 -1121 -713 -1464 -866 -195
-87 -449 -165 -644 -198 -124 -20 -377 -16 -495 9 -253 54 -433 211 -501 438
-26 85 -24 278 4 400 55 242 203 492 403 678 302 282 671 438 1154 487 110 11
410 7 423 -5 2 -3 -11 -45 -31 -93 -80 -200 -119 -415 -100 -547 22 -153 103
-270 231 -333 76 -38 76 -38 202 -38 114 0 131 3 195 29 198 81 378 252 528
501 58 97 217 411 243 479 26 70 29 42 5 -50 -53 -210 -141 -660 -141 -722 0
-18 28 -4 187 92 l188 112 23 110 c40 188 189 783 232 924 22 74 62 209 89
300 27 91 89 298 139 460 191 619 270 820 368 929 24 27 44 51 44 54 0 3 -29
9 -65 12 -156 17 -308 -37 -408 -145 -89 -96 -147 -234 -282 -680 -98 -322
-291 -899 -356 -1065 -34 -88 -109 -252 -165 -365 -213 -425 -371 -608 -587
-681 -100 -34 -196 -8 -254 68 -25 32 -28 46 -31 124 -3 73 0 101 22 168 45
139 107 291 119 292 42 4 156 -22 317 -72 52 -16 99 -29 104 -29 32 0 -206
132 -316 175 -38 15 -68 33 -68 39 0 13 13 46 105 271 294 719 421 1175 401
1441 -16 214 -120 368 -294 435 -82 32 -269 37 -369 10z"/>
<path d="M7107 6843 c-36 -76 -77 -163 -90 -194 -29 -65 -2 -57 -280 -85 -92
-9 -166 -21 -165 -26 2 -4 73 -70 158 -146 140 -125 155 -141 152 -168 -2 -16
-21 -104 -43 -195 -21 -91 -39 -173 -39 -181 0 -15 135 51 318 156 35 20 66
36 69 36 5 0 77 -42 266 -153 65 -38 120 -67 123 -65 5 5 -46 259 -72 363
l-16 60 39 34 c21 18 81 69 133 114 124 104 173 148 168 151 -1 2 -104 13
-228 25 -124 13 -226 24 -227 25 -4 3 -101 203 -148 304 -21 45 -42 82 -45 82
-4 0 -36 -62 -73 -137z m99 -365 c9 -29 22 -56 28 -60 6 -4 34 -8 63 -8 28 0
54 -3 56 -8 3 -4 -15 -21 -39 -37 -49 -34 -54 -54 -29 -124 8 -22 11 -41 7
-41 -4 0 -30 15 -57 34 l-50 34 -48 -35 c-26 -20 -50 -33 -53 -30 -3 3 1 30 9
61 l15 56 -44 39 c-24 21 -44 41 -44 45 0 3 27 6 59 6 l59 0 18 53 c18 55 23
67 29 67 2 0 11 -24 21 -52z"/>
</g>
</svg>
